<?xml version="1.0" encoding="UTF-8"?>
<svg width="20px" height="16px" viewBox="0 0 20 16" version="1.1" xmlns="http://www.w3.org/2000/svg" xmlns:xlink="http://www.w3.org/1999/xlink">
    <!-- Generator: Sketch 49.3 (51167) - http://www.bohemiancoding.com/sketch -->
    <title>Page 1</title>
    <desc>Created with Sketch.</desc>
    <defs></defs>
    <g id="Page-1" stroke="none" stroke-width="1" fill="none" fill-rule="evenodd">
        <g id="about" transform="translate(-451.000000, -4349.000000)">
            <g id="Page-1" transform="translate(449.000000, 4345.000000)">
                <polygon id="Stroke-1" stroke-opacity="0.00784313771" stroke="#000000" stroke-width="1.33333335e-11" points="0 0 23.9999985 0 23.9999985 23.9999985 0 23.9999985"></polygon>
                <path d="M19.9999999,3.99999976 L3.99999988,3.99999976 C2.89999997,3.99999976 2.00999987,4.89999985 2.00999987,5.99999976 L1.99999988,17.9999998 C1.99999988,19.1000001 2.89999997,19.9999998 3.99999988,19.9999998 L19.9999999,19.9999998 C21.1000002,19.9999998 21.9999999,19.1000001 21.9999999,17.9999998 L21.9999999,5.99999976 C21.9999999,4.89999985 21.1000002,3.99999976 19.9999999,3.99999976 Z M19.9999988,7.99999952 L11.9999993,12.9999992 L3.99999976,7.99999952 L3.99999976,5.99999964 L11.9999993,10.9999993 L19.9999988,5.99999964 L19.9999988,7.99999952 Z" id="Fill-2" fill="#FFFFFF"></path>
            </g>
        </g>
    </g>
</svg>