<?xml version="1.0" encoding="UTF-8"?>
<svg width="32px" height="32px" viewBox="0 0 32 32" version="1.1" xmlns="http://www.w3.org/2000/svg" xmlns:xlink="http://www.w3.org/1999/xlink">
    <!-- Generator: Sketch 49.2 (51160) - http://www.bohemiancoding.com/sketch -->
    <title>facebook</title>
    <desc>Created with Sketch.</desc>
    <defs></defs>
    <g id="facebook" stroke="none" stroke-width="1" fill="none" fill-rule="evenodd">
        <g id="Page-1-Copy" transform="translate(5.000000, 5.000000)" fill="#AF0556">
            <path d="M20.7774839,3.29588009e-05 L1.2137161,3.29588009e-05 C0.543251685,3.29588009e-05 8.23970089e-06,0.543358801 8.23970089e-06,1.21382322 L8.23970089e-06,20.777591 C8.23970089e-06,21.4478906 0.543251685,21.9913813 1.2137161,21.9913813 L11.7461955,21.9913813 L11.7461955,13.4751566 L8.88034532,13.4751566 L8.88034532,10.1562052 L11.7461955,10.1562052 L11.7461955,7.70860225 C11.7461955,4.86821273 13.480982,3.32153858 16.0148547,3.32153858 C17.2285625,3.32153858 18.271791,3.41184569 18.575836,3.45230262 L18.575836,6.42065468 L16.8183903,6.42147865 C15.4403828,6.42147865 15.1734989,7.07628764 15.1734989,8.0372839 L15.1734989,10.1562052 L18.4600682,10.1562052 L18.0320981,13.4751566 L15.1734989,13.4751566 L15.1734989,21.9913813 L20.7774839,21.9913813 C21.4477011,21.9913813 21.9911918,21.4478906 21.9911918,20.777591 L21.9911918,1.21382322 C21.9911918,0.543358801 21.4477011,3.29588009e-05 20.7774839,3.29588009e-05" id="Fill-1"></path>
        </g>
    </g>
</svg>