<?xml version="1.0" encoding="UTF-8"?>
<svg width="14px" height="13px" viewBox="0 0 14 13" version="1.1" xmlns="http://www.w3.org/2000/svg" xmlns:xlink="http://www.w3.org/1999/xlink">
    <!-- Generator: Sketch 49.3 (51167) - http://www.bohemiancoding.com/sketch -->
    <title>Page 1</title>
    <desc>Created with Sketch.</desc>
    <defs></defs>
    <g id="Page-1" stroke="none" stroke-width="1" fill="none" fill-rule="evenodd">
        <g id="small-groups" transform="translate(-133.000000, -1355.000000)">
            <g id="Page-1" transform="translate(132.000000, 1353.000000)">
                <polygon id="Stroke-1" stroke-opacity="0.00784313771" stroke="#000000" stroke-width="1.33333335e-11" points="0 0 15.999999 0 15.999999 15.999999 0 15.999999"></polygon>
                <path d="M10.9999993,1.99999988 C9.83999954,1.99999988 8.72666621,2.53999981 7.99999952,3.39333323 C7.27333276,2.53999981 6.15999948,1.99999988 4.9999997,1.99999988 C2.94666654,1.99999988 1.33333325,3.61333316 1.33333325,5.66666633 C1.33333325,8.18666598 3.59999984,10.2399998 7.03333298,13.3599998 L7.99999952,14.2333327 L8.966666,13.3533329 C12.3999995,10.2399991 14.6666658,8.18666598 14.6666658,5.66666633 C14.6666658,3.61333316 13.0533325,1.99999988 10.9999993,1.99999988 Z M8.06666638,12.3666654 L7.99999952,12.4333323 L7.93333259,12.3666654 C4.75999962,9.49333256 2.66666651,7.59333308 2.66666651,5.66666633 C2.66666651,4.33333307 3.66666645,3.33333313 4.9999997,3.33333313 C6.02666628,3.33333313 7.02666618,3.99333294 7.37999929,4.90666646 L8.62666582,4.90666646 C8.97333279,3.99333294 9.97333273,3.33333313 10.9999993,3.33333313 C12.3333326,3.33333313 13.3333325,4.33333307 13.3333325,5.66666633 C13.3333325,7.59333241 11.2399997,9.49333256 8.06666638,12.3666654 Z" id="Fill-2" fill="#000000"></path>
            </g>
        </g>
    </g>
</svg>