<?xml version="1.0" encoding="UTF-8"?>
<svg width="32px" height="32px" viewBox="0 0 32 32" version="1.1" xmlns="http://www.w3.org/2000/svg" xmlns:xlink="http://www.w3.org/1999/xlink">
    <!-- Generator: Sketch 49.2 (51160) - http://www.bohemiancoding.com/sketch -->
    <title>instagram</title>
    <desc>Created with Sketch.</desc>
    <defs>
        <polygon id="path-1" points="11.9962024 23.9524752 0 23.9524752 0 0.00755643564 11.9962024 0.00755643564 23.9924048 0.00755643564 23.9924048 23.9524752"></polygon>
    </defs>
    <g id="instagram" stroke="none" stroke-width="1" fill="none" fill-rule="evenodd">
        <g id="Page-1-Copy" transform="translate(4.000000, 4.000000)">
            <g id="Group-3" transform="translate(0.000000, 0.039968)">
                <mask id="mask-2" fill="white">
                    <use xlink:href="#path-1"></use>
                </mask>
                <g id="Clip-2"></g>
                <path d="M11.9962143,0.00755643564 C8.73821429,0.00755643564 8.32969048,0.0213386139 7.05021429,0.0796039604 C5.77330952,0.137726733 4.90130952,0.340134653 4.13821429,0.636071287 C3.34935714,0.942035644 2.68035714,1.35141386 2.01345238,2.01699802 C1.34654762,2.6826297 0.936357143,3.35030495 0.629785714,4.1376 C0.333214286,4.89913663 0.130452381,5.76945743 0.0721666667,7.04378614 C0.0137857143,8.32077624 -2.38095237e-05,8.72849109 -2.38095237e-05,11.9800396 C-2.38095237e-05,15.2315406 0.0137857143,15.6392554 0.0721666667,16.9162455 C0.130452381,18.1905743 0.333214286,19.060895 0.629785714,19.8224317 C0.936357143,20.6097267 1.34654762,21.277402 2.01345238,21.9430337 C2.68035714,22.6086178 3.34935714,23.017996 4.13821429,23.3239604 C4.90130952,23.619897 5.77330952,23.822305 7.05021429,23.8804277 C8.32969048,23.9387406 8.73821429,23.9524752 11.9962143,23.9524752 C15.2542143,23.9524752 15.6626905,23.9387406 16.9422143,23.8804277 C18.219119,23.822305 19.091119,23.619897 19.8542143,23.3239604 C20.6430714,23.017996 21.3120714,22.6086178 21.9789762,21.9430337 C22.645881,21.277402 23.0560714,20.6097267 23.3626429,19.8224317 C23.6592143,19.060895 23.8619762,18.1905743 23.9202619,16.9162455 C23.9786429,15.6392554 23.9924048,15.2315406 23.9924048,11.9800396 C23.9924048,8.72849109 23.9786429,8.32077624 23.9202619,7.04378614 C23.8619762,5.76945743 23.6592143,4.89913663 23.3626429,4.1376 C23.0560714,3.35030495 22.645881,2.6826297 21.9789762,2.01699802 C21.3120714,1.35141386 20.6430714,0.942035644 19.8542143,0.636071287 C19.091119,0.340134653 18.219119,0.137726733 16.9422143,0.0796039604 C15.6626905,0.0213386139 15.2542143,0.00755643564 11.9962143,0.00755643564 M11.9962143,2.16475248 C15.1993571,2.16475248 15.5787381,2.17696634 16.8436905,2.23456634 C18.0133095,2.28779406 18.6485,2.48283564 19.0712619,2.64679604 C19.6311667,2.86398416 20.0308333,3.12342178 20.4505952,3.5424 C20.8703571,3.96133069 21.1303571,4.36015842 21.3479286,4.91900198 C21.5122143,5.34087921 21.7076429,5.97481188 21.7610238,7.14211485 C21.8187381,8.40456238 21.8309286,8.7832396 21.8309286,11.9800396 C21.8309286,15.1767921 21.8187381,15.5554693 21.7610238,16.8179168 C21.7076429,17.9852198 21.5122143,18.6191525 21.3479286,19.0410297 C21.1303571,19.5998733 20.8703571,19.998701 20.4505952,20.4176317 C20.0308333,20.8366099 19.6311667,21.0960475 19.0712619,21.3132356 C18.6485,21.477196 18.0133095,21.6722376 16.8436905,21.7254653 C15.5789286,21.7830653 15.1995476,21.7952792 11.9962143,21.7952792 C8.79288095,21.7952792 8.4135,21.7830653 7.1487381,21.7254653 C5.97911905,21.6722376 5.34388095,21.477196 4.92116667,21.3132356 C4.3612619,21.0960475 3.96159524,20.8366099 3.54183333,20.4176317 C3.12207143,19.998701 2.86207143,19.5998733 2.64445238,19.0410297 C2.48021429,18.6191525 2.28478571,17.9852198 2.23140476,16.8179168 C2.17369048,15.5554693 2.1615,15.1767921 2.1615,11.9800396 C2.1615,8.7832396 2.17369048,8.40456238 2.23140476,7.14211485 C2.28478571,5.97481188 2.48021429,5.34087921 2.64445238,4.91900198 C2.86207143,4.36015842 3.12207143,3.96133069 3.54183333,3.5424 C3.96159524,3.12342178 4.3612619,2.86398416 4.92116667,2.64679604 C5.34388095,2.48283564 5.97911905,2.28779406 7.14869048,2.23456634 C8.41369048,2.17696634 8.79307143,2.16475248 11.9962143,2.16475248" id="Fill-1" fill="#AF0556" mask="url(#mask-2)"></path>
            </g>
            <path d="M11.9962143,16.010804 C9.78778571,16.010804 7.99745238,14.2240634 7.99745238,12.0200079 C7.99745238,9.81590495 9.78778571,8.02916436 11.9962143,8.02916436 C14.2046429,8.02916436 15.9949286,9.81590495 15.9949286,12.0200079 C15.9949286,14.2240634 14.2046429,16.010804 11.9962143,16.010804 M11.9962143,5.87196832 C8.59402381,5.87196832 5.83597619,8.62450693 5.83597619,12.0200079 C5.83597619,15.4154614 8.59402381,18.168 11.9962143,18.168 C15.3984048,18.168 18.1564524,15.4154614 18.1564524,12.0200079 C18.1564524,8.62450693 15.3984048,5.87196832 11.9962143,5.87196832" id="Fill-4" fill="#AF0556"></path>
            <path d="M19.8393714,5.62905505 C19.8393714,6.42252832 19.1948476,7.06572832 18.3998476,7.06572832 C17.6048,7.06572832 16.9602762,6.42252832 16.9602762,5.62905505 C16.9602762,4.83558178 17.6048,4.19238178 18.3998476,4.19238178 C19.1948476,4.19238178 19.8393714,4.83558178 19.8393714,5.62905505" id="Fill-6" fill="#AF0556"></path>
        </g>
    </g>
</svg>