<?xml version="1.0" encoding="UTF-8"?>
<svg width="138px" height="42px" viewBox="0 0 138 42" version="1.1" xmlns="http://www.w3.org/2000/svg" xmlns:xlink="http://www.w3.org/1999/xlink">
    <!-- Generator: Sketch 49.1 (51147) - http://www.bohemiancoding.com/sketch -->
    <title>Page 1</title>
    <desc>Created with Sketch.</desc>
    <defs>
        <polygon id="path-1" points="0 41.9475337 137.985952 41.9475337 137.985952 0.00131749755 0 0.00131749755"></polygon>
    </defs>
    <g id="Page-1" stroke="none" stroke-width="1" fill="none" fill-rule="evenodd">
        <g id="home" transform="translate(-32.000000, -23.000000)">
            <g id="Page-1" transform="translate(32.000000, 23.000000)">
                <polygon id="Fill-1" fill="#121212" points="37.9756304 18.4509455 32.2472351 10.0934124 32.2472351 18.4509455 30.7806691 18.4509455 30.7806691 8.20042024 32.7406592 8.20042024 38.0352928 16.0646376 38.0352928 8.20042024 39.5018587 8.20042024 39.5018587 18.4509455"></polygon>
                <g id="Group-37">
                    <path d="M46.8549771,15.1284051 C46.8549771,13.4882326 45.8167677,12.6020618 44.6306993,12.6020618 C43.4438316,12.6020618 42.4064214,13.4882326 42.4064214,15.1284051 C42.4064214,16.782113 43.4438316,17.6682838 44.6306993,17.6682838 C45.8167677,17.6682838 46.8549771,16.782113 46.8549771,15.1284051 M48.2784191,15.1284051 C48.2784191,17.2996431 46.7662618,18.9095599 44.6306993,18.9095599 C42.495936,18.9095599 40.9829794,17.2996431 40.9829794,15.1284051 C40.9829794,12.9714987 42.495936,11.3615819 44.6306993,11.3615819 C46.7662618,11.3615819 48.2784191,12.9714987 48.2784191,15.1284051" id="Fill-2" fill="#121212"></path>
                    <path d="M53.7601491,12.9862284 C53.5523474,12.956769 53.3445457,12.9416412 53.1519294,12.9416412 C51.9810465,12.9416412 51.1953961,13.5626774 51.1953961,15.128007 L51.1953961,18.6878182 L49.8015259,18.6878182 L49.8015259,11.5825274 L51.1650251,11.5825274 L51.1650251,12.8238036 C51.6837302,11.7306207 52.5740807,11.4646898 53.3005876,11.4646898 C53.4932038,11.4646898 53.6858201,11.4941492 53.7601491,11.509277 L53.7601491,12.9862284 Z" id="Fill-4" fill="#121212"></path>
                    <path d="M57.2887826,11.5827663 L58.8313109,11.5827663 L58.8313109,12.838374 L57.2887826,12.838374 L57.2887826,16.5311506 C57.2887826,17.18085 57.5557279,17.5056997 58.2822348,17.5056997 C58.4604647,17.5056997 58.7122245,17.4762403 58.8313109,17.4467809 L58.8313109,18.6291382 C58.7122245,18.6729292 58.3565638,18.7621037 57.8818168,18.7621037 C56.6661766,18.7621037 55.8949124,18.0232299 55.8949124,16.7381627 L55.8949124,12.838374 L54.5314133,12.838374 L54.5314133,11.5827663 L54.9158465,11.5827663 C55.6871107,11.5827663 56.0131996,11.1098233 56.0131996,10.4895834 L56.0131996,9.33827786 L57.2887826,9.33827786 L57.2887826,11.5827663 Z" id="Fill-6" fill="#121212"></path>
                    <path d="M61.6924212,18.6879774 L60.2985511,18.6879774 L60.2985511,7.99341607 L61.6924212,7.99341607 L61.6924212,12.4099387 C62.2111263,11.6567333 63.0415341,11.3756746 63.8575555,11.3756746 C65.5631283,11.3756746 66.4071231,12.6018229 66.4071231,14.1830766 L66.4071231,18.6879774 L65.0140521,18.6879774 L65.0140521,14.419548 C65.0140521,13.4298712 64.5992479,12.6320785 63.3532367,12.6320785 C62.2854554,12.6320785 61.721993,13.4593306 61.6924212,14.5079263 L61.6924212,18.6879774 Z" id="Fill-8" fill="#121212"></path>
                    <polygon id="Fill-10" fill="#121212" points="79.3076151 18.6879774 79.3076151 14.0349833 73.939137 14.0349833 73.939137 18.6879774 72.4861233 18.6879774 72.4861233 8.21555593 73.939137 8.21555593 73.939137 12.6909974 79.3076151 12.6909974 79.3076151 8.21555593 80.7598296 8.21555593 80.7598296 18.6879774"></polygon>
                    <mask id="mask-2" fill="white">
                        <use xlink:href="#path-1"></use>
                    </mask>
                    <g id="Clip-13"></g>
                    <path d="M82.9976146,18.6881367 L84.3762992,18.6881367 L84.3762992,11.5828459 L82.9976146,11.5828459 L82.9976146,18.6881367 Z M83.6793642,7.89006928 C84.2436258,7.89006928 84.6880019,8.3335528 84.6880019,8.89407775 C84.6880019,9.44106731 84.2436258,9.88375463 83.6793642,9.88375463 C83.130288,9.88375463 82.6867112,9.44106731 82.6867112,8.89407775 C82.6867112,8.3335528 83.130288,7.89006928 83.6793642,7.89006928 Z" id="Fill-12" fill="#121212" mask="url(#mask-2)"></path>
                    <polygon id="Fill-14" fill="#121212" mask="url(#mask-2)" points="86.3671998 18.6881367 87.7610699 18.6881367 87.7610699 7.99357531 86.3671998 7.99357531"></polygon>
                    <polygon id="Fill-15" fill="#121212" mask="url(#mask-2)" points="89.7471751 18.6881367 91.1410452 18.6881367 91.1410452 7.99357531 89.7471751 7.99357531"></polygon>
                    <path d="M93.8391111,16.3989018 C93.9278264,17.1377756 94.4912888,17.72776 95.4999265,17.72776 C96.2863762,17.72776 96.7155667,17.2842764 96.7155667,16.7818741 C96.7155667,16.339983 96.3894778,15.9992093 95.7964436,15.86704 L94.5808034,15.6011092 C93.4682649,15.3646377 92.8009016,14.6114323 92.8009016,13.6066276 C92.8009016,12.3956071 93.9430119,11.361343 95.3368821,11.361343 C97.2942147,11.361343 97.9016351,12.6320785 98.0510925,13.2666501 L96.8194676,13.7252614 C96.760324,13.3558245 96.4630077,12.5429041 95.3368821,12.5429041 C94.6247615,12.5429041 94.1508137,13.0007192 94.1508137,13.48879 C94.1508137,13.9171457 94.417759,14.2268676 94.9660359,14.3455014 L96.1225325,14.5963045 C97.4125018,14.8773632 98.0950506,15.660028 98.0950506,16.7086237 C98.0950506,17.7126322 97.2494574,18.9093211 95.4855403,18.9093211 C93.5274085,18.9093211 92.6970007,17.6537133 92.5787136,16.8415891 L93.8391111,16.3989018 Z" id="Fill-16" fill="#121212" mask="url(#mask-2)"></path>
                    <path d="M29.9250495,27.4578044 C29.9250495,23.956912 32.535359,22.0062215 35.1440702,22.0062215 C37.546578,22.0062215 39.2369653,23.3072126 39.7708559,25.3303574 L38.421743,25.8033003 C38.0213251,24.2228429 36.8648284,23.336672 35.1440702,23.336672 C33.2322941,23.336672 31.407635,24.724449 31.407635,27.4578044 C31.407635,30.1911597 33.2322941,31.5932683 35.1440702,31.5932683 C36.9383583,31.5932683 38.0660824,30.5152132 38.4960721,29.0820528 L39.7860414,29.5549957 C39.222579,31.5200179 37.5617635,32.9229227 35.1440702,32.9229227 C32.4314582,32.9229227 29.9250495,30.9579005 29.9250495,27.4578044" id="Fill-17" fill="#121212" mask="url(#mask-2)"></path>
                    <path d="M42.6129443,32.701579 L41.2190742,32.701579 L41.2190742,22.0062215 L42.6129443,22.0062215 L42.6129443,26.4235403 C43.1316495,25.6703349 43.9620572,25.3892762 44.7780786,25.3892762 C46.4836514,25.3892762 47.3276462,26.6154245 47.3276462,28.1966782 L47.3276462,32.701579 L45.933776,32.701579 L45.933776,28.4331496 C45.933776,27.4434728 45.519771,26.6456801 44.2737598,26.6456801 C43.2059785,26.6456801 42.6425161,27.4729322 42.6129443,28.5215279 L42.6129443,32.701579 Z" id="Fill-18" fill="#121212" mask="url(#mask-2)"></path>
                    <path d="M53.2090749,26.99983 C53.0012732,26.9703706 52.7934714,26.9552428 52.6008552,26.9552428 C51.4291731,26.9552428 50.6435226,27.576279 50.6435226,29.1416086 L50.6435226,32.7014198 L49.2496525,32.7014198 L49.2496525,25.596129 L50.6139508,25.596129 L50.6139508,26.8374052 C51.1326559,25.7442223 52.0230065,25.4782914 52.7495134,25.4782914 C52.9421296,25.4782914 53.1347458,25.5077508 53.2090749,25.5228786 L53.2090749,26.99983 Z" id="Fill-19" fill="#121212" mask="url(#mask-2)"></path>
                    <path d="M54.404894,32.7020567 L55.7843779,32.7020567 L55.7843779,25.596766 L54.404894,25.596766 L54.404894,32.7020567 Z M55.0866436,21.9039893 C55.6509052,21.9039893 56.0952813,22.3466767 56.0952813,22.9079978 C56.0952813,23.4541912 55.6509052,23.8976747 55.0866436,23.8976747 C54.5383667,23.8976747 54.0931914,23.4541912 54.0931914,22.9079978 C54.0931914,22.3466767 54.5383667,21.9039893 55.0866436,21.9039893 Z" id="Fill-20" fill="#121212" mask="url(#mask-2)"></path>
                    <path d="M58.4666188,30.4125034 C58.5553342,31.150581 59.1187966,31.7413615 60.1266351,31.7413615 C60.9130847,31.7413615 61.3430745,31.297878 61.3430745,30.7954757 C61.3430745,30.3527884 61.0161864,30.0128109 60.4231522,29.8806416 L59.207512,29.6139146 C58.0957727,29.3782393 57.4284094,28.6250339 57.4284094,27.6202292 C57.4284094,26.4092087 58.5705197,25.3749446 59.9635906,25.3749446 C61.9209232,25.3749446 62.5291429,26.6456801 62.6778011,27.2802517 L61.4469754,27.738863 C61.3870326,27.3694261 61.0905155,26.5565057 59.9635906,26.5565057 C59.25147,26.5565057 58.7783215,27.0143208 58.7783215,27.5023916 C58.7783215,27.9307473 59.0452668,28.2404692 59.5935437,28.359103 L60.7492411,28.6099061 C62.0400096,28.8909648 62.7217592,29.6736296 62.7217592,30.7222253 C62.7217592,31.7262337 61.8769651,32.9229227 60.113048,32.9229227 C58.1549162,32.9229227 57.3245085,31.6673149 57.2062214,30.8551907 L58.4666188,30.4125034 Z" id="Fill-21" fill="#121212" mask="url(#mask-2)"></path>
                    <path d="M66.3902592,25.5963679 L67.9327875,25.5963679 L67.9327875,26.8519756 L66.3902592,26.8519756 L66.3902592,30.5447522 C66.3902592,31.1944516 66.6572045,31.5193013 67.3837113,31.5193013 C67.561142,31.5193013 67.8129019,31.4898419 67.9327875,31.4603825 L67.9327875,32.6427398 C67.8129019,32.6865308 67.4580404,32.7757053 66.9832934,32.7757053 C65.7676532,32.7757053 64.996389,32.0368314 64.996389,30.7517643 L64.996389,26.8519756 L63.6320906,26.8519756 L63.6320906,25.5963679 L64.0173231,25.5963679 C64.7885873,25.5963679 65.1146761,25.1234249 65.1146761,24.503185 L65.1146761,23.3518794 L66.3902592,23.3518794 L66.3902592,25.5963679 Z" id="Fill-22" fill="#121212" mask="url(#mask-2)"></path>
                    <path d="M69.3050782,32.7020567 L70.6845621,32.7020567 L70.6845621,25.596766 L69.3050782,25.596766 L69.3050782,32.7020567 Z M69.9868278,21.9039893 C70.5502902,21.9039893 70.9954655,22.3466767 70.9954655,22.9079978 C70.9954655,23.4541912 70.5502902,23.8976747 69.9868278,23.8976747 C69.4377516,23.8976747 68.9933756,23.4541912 68.9933756,22.9079978 C68.9933756,22.3466767 69.4377516,21.9039893 69.9868278,21.9039893 Z" id="Fill-23" fill="#121212" mask="url(#mask-2)"></path>
                    <path d="M76.8888827,29.6590591 L76.8888827,29.3334132 L74.7085629,29.6590591 C74.116328,29.7474373 73.6719519,30.0866186 73.6719519,30.7219864 C73.6719519,31.2538482 74.116328,31.7562505 74.8284485,31.7562505 C75.9697597,31.7562505 76.8888827,31.2092609 76.8888827,29.6590591 M74.4128451,28.6399228 L76.3406058,28.3588642 C76.7705956,28.2999453 76.8888827,28.0786017 76.8888827,27.8270024 C76.8888827,27.1327158 76.4293212,26.5570631 75.3471537,26.5570631 C74.368887,26.5570631 73.8198108,27.1621752 73.7310955,27.9894273 L72.3963689,27.6797054 C72.5442278,26.3205916 73.7750536,25.3747057 75.3175819,25.3747057 C77.4523452,25.3747057 78.2827529,26.5865225 78.2827529,27.9750956 L78.2827529,31.5341106 C78.2827529,32.1551468 78.3418965,32.5245837 78.3714683,32.7013402 L77.0071699,32.7013402 C76.9775981,32.5245837 76.93364,32.2586528 76.93364,31.7411227 C76.6219374,32.243525 75.9098168,32.92348 74.6358323,32.92348 C73.1820193,32.92348 72.2477107,31.9186753 72.2477107,30.796033 C72.2477107,29.5252975 73.1820193,28.8158831 74.4128451,28.6399228" id="Fill-24" fill="#121212" mask="url(#mask-2)"></path>
                    <path d="M81.5656208,32.701579 L80.1717507,32.701579 L80.1717507,25.5962882 L81.536049,25.5962882 L81.536049,26.6154245 C82.0547542,25.7292537 82.9003474,25.3892762 83.7307551,25.3892762 C85.4363279,25.3892762 86.2803227,26.6154245 86.2803227,28.1966782 L86.2803227,32.701579 L84.8864525,32.701579 L84.8864525,28.4331496 C84.8864525,27.4434728 84.4724475,26.6456801 83.2264363,26.6456801 C82.1290832,26.6456801 81.5656208,27.5167232 81.5656208,28.5947783 L81.5656208,32.701579 Z" id="Fill-25" fill="#121212" mask="url(#mask-2)"></path>
                    <path d="M91.6918797,27.4578044 C91.6918797,23.956912 94.3021893,22.0062215 96.9116996,22.0062215 C99.3134082,22.0062215 101.003795,23.3072126 101.537686,25.3303574 L100.188573,25.8033003 C99.7881553,24.2228429 98.6316586,23.336672 96.9116996,23.336672 C94.9991243,23.336672 93.1744652,24.724449 93.1744652,27.4578044 C93.1744652,30.1911597 94.9991243,31.5932683 96.9116996,31.5932683 C98.7059877,31.5932683 99.8329126,30.5152132 100.262902,29.0820528 L101.552872,29.5549957 C100.989409,31.5200179 99.3285937,32.9229227 96.9116996,32.9229227 C94.1982884,32.9229227 91.6918797,30.9579005 91.6918797,27.4578044" id="Fill-26" fill="#121212" mask="url(#mask-2)"></path>
                    <path d="M104.380574,32.701579 L102.986704,32.701579 L102.986704,22.0062215 L104.380574,22.0062215 L104.380574,26.4235403 C104.899279,25.6703349 105.728887,25.3892762 106.544909,25.3892762 C108.250482,25.3892762 109.095276,26.6154245 109.095276,28.1966782 L109.095276,32.701579 L107.701405,32.701579 L107.701405,28.4331496 C107.701405,27.4434728 107.286601,26.6456801 106.04059,26.6456801 C104.973608,26.6456801 104.410146,27.4729322 104.380574,28.5215279 L104.380574,32.701579 Z" id="Fill-27" fill="#121212" mask="url(#mask-2)"></path>
                    <path d="M113.599938,32.9231615 C111.939122,32.9231615 110.930485,31.6818854 110.930485,30.0719685 L110.930485,25.5965271 L112.324355,25.5965271 L112.324355,29.8649565 C112.324355,30.8403018 112.76953,31.6970132 113.941212,31.6970132 C115.068137,31.6970132 115.6316,30.9581394 115.6316,29.8808805 L115.6316,25.5965271 L117.02547,25.5965271 L117.02547,31.3864951 C117.02547,31.9478163 117.069428,32.4502186 117.099,32.7018179 L115.765072,32.7018179 C115.7355,32.539393 115.705929,32.1404967 115.705929,31.8451064 C115.319897,32.583184 114.430346,32.9231615 113.599938,32.9231615" id="Fill-28" fill="#121212" mask="url(#mask-2)"></path>
                    <path d="M122.998731,26.99983 C122.790929,26.9703706 122.583127,26.9552428 122.390511,26.9552428 C121.218829,26.9552428 120.433179,27.576279 120.433179,29.1416086 L120.433179,32.7014198 L119.040108,32.7014198 L119.040108,25.596129 L120.403607,25.596129 L120.403607,26.8374052 C120.922312,25.7442223 121.812662,25.4782914 122.539169,25.4782914 C122.731785,25.4782914 122.924402,25.5077508 122.998731,25.5228786 L122.998731,26.99983 Z" id="Fill-29" fill="#121212" mask="url(#mask-2)"></path>
                    <path d="M125.109997,29.1420067 C125.109997,30.7662551 126.13302,31.6380944 127.290316,31.6380944 C128.624244,31.6380944 129.114176,30.7367957 129.276421,30.1762708 L130.507247,30.7073363 C130.165973,31.7264726 129.142949,32.9231615 127.290316,32.9231615 C125.213897,32.9231615 123.686555,31.2981169 123.686555,29.1420067 C123.686555,26.9261815 125.243469,25.3751834 127.274332,25.3751834 C129.172521,25.3751834 130.151586,26.5567446 130.448104,27.6347997 L129.187706,28.1666614 C129.009476,27.4723748 128.489972,26.6602506 127.274332,26.6602506 C126.148206,26.6602506 125.109997,27.4875026 125.109997,29.1420067" id="Fill-30" fill="#121212" mask="url(#mask-2)"></path>
                    <path d="M133.27101,32.701579 L131.87714,32.701579 L131.87714,22.0062215 L133.27101,22.0062215 L133.27101,26.4235403 C133.789715,25.6703349 134.620123,25.3892762 135.436145,25.3892762 C137.140918,25.3892762 137.985712,26.6154245 137.985712,28.1966782 L137.985712,32.701579 L136.591842,32.701579 L136.591842,28.4331496 C136.591842,27.4434728 136.177837,26.6456801 134.931826,26.6456801 C133.864045,26.6456801 133.300582,27.4729322 133.27101,28.5215279 L133.27101,32.701579 Z" id="Fill-31" fill="#121212" mask="url(#mask-2)"></path>
                    <path d="M5.86440496,9.28286232 C5.65020931,8.38554467 5.49995267,7.55271924 5.37127544,6.74059502 C5.39285485,7.55271924 5.41443426,8.38554467 5.41443426,9.32585713 L5.41443426,19.131859 L4.19160093,19.131859 L4.19160093,4.17683031 L6.0146616,4.17683031 L8.18059515,13.3848859 C8.39559003,14.3037009 8.54504744,15.1373225 8.67452391,15.9486506 C8.65214526,15.1373225 8.60978568,14.3037009 8.60978568,13.3633884 L8.60978568,4.17683031 L9.85339918,4.17683031 L9.85339918,19.131859 L8.2669128,19.131859 L5.86440496,9.28286232 Z" id="Fill-32" fill="#121212" mask="url(#mask-2)"></path>
                    <path d="M5.62870983,34.9517205 C5.62870983,36.1046184 5.69264882,36.4684819 6.74444534,36.4684819 L7.30151386,36.4684819 C8.35251113,36.4684819 8.41645013,36.1046184 8.41645013,34.9517205 L8.41645013,31.6610249 L9.7679607,31.6610249 L9.7679607,35.2295943 C9.7679607,37.1946165 9.29641059,37.7718616 7.4517705,37.7718616 L6.52945046,37.7718616 C4.68481037,37.7718616 4.19168085,37.1946165 4.19168085,35.2295943 L4.19168085,25.1457185 C4.19168085,23.1799002 4.68481037,22.602655 6.52945046,22.602655 L7.4517705,22.602655 C9.29641059,22.602655 9.7679607,23.1799002 9.7679607,25.1457185 L9.7679607,28.0717544 L8.41645013,28.0717544 L8.41645013,25.4227962 C8.41645013,24.2691021 8.35251113,23.9060348 7.30151386,23.9060348 L6.74444534,23.9060348 C5.69264882,23.9060348 5.62870983,24.2691021 5.62870983,25.4227962 L5.62870983,34.9517205 Z" id="Fill-33" fill="#121212" mask="url(#mask-2)"></path>
                    <path d="M14.774624,34.9517205 C14.774624,36.1046184 14.838563,36.4684819 15.8903595,36.4684819 L16.447428,36.4684819 C17.4976261,36.4684819 17.5623643,36.1046184 17.5623643,34.9517205 L17.5623643,31.6610249 L18.9138749,31.6610249 L18.9138749,35.2295943 C18.9138749,37.1946165 18.4415255,37.7718616 16.5976847,37.7718616 L15.6753646,37.7718616 C13.8307245,37.7718616 13.337595,37.1946165 13.337595,35.2295943 L13.337595,25.1457185 C13.337595,23.1799002 13.8307245,22.602655 15.6753646,22.602655 L16.5976847,22.602655 C18.4415255,22.602655 18.9138749,23.1799002 18.9138749,25.1457185 L18.9138749,28.0717544 L17.5623643,28.0717544 L17.5623643,25.4227962 C17.5623643,24.2691021 17.4976261,23.9060348 16.447428,23.9060348 L15.8903595,23.9060348 C14.838563,23.9060348 14.774624,24.2691021 14.774624,25.4227962 L14.774624,34.9517205 Z" id="Fill-34" fill="#121212" mask="url(#mask-2)"></path>
                    <polygon id="Fill-35" fill="#121212" mask="url(#mask-2)" points="13.3377549 19.1319387 13.3377549 4.17690993 14.7532044 4.17690993 14.7532044 10.6508139 17.5625242 10.6508139 17.5625242 4.17690993 18.978773 4.17690993 18.978773 19.1319387 17.5625242 19.1319387 17.5625242 11.9326963 14.7532044 11.9326963 14.7532044 19.1319387"></polygon>
                    <path d="M1.41544956,40.5374631 L21.7544448,40.5374631 L21.7544448,1.41059189 L1.41544956,1.41059189 L1.41544956,40.5374631 Z M0,41.9475337 L23.1698943,41.9475337 L23.1698943,0.00131749755 L0,0.00131749755 L0,41.9475337 Z" id="Fill-36" fill="#121212" mask="url(#mask-2)"></path>
                </g>
            </g>
        </g>
    </g>
</svg>