<?xml version="1.0" encoding="UTF-8"?>
<svg width="1440px" height="810px" viewBox="0 0 1440 810" version="1.1" xmlns="http://www.w3.org/2000/svg" xmlns:xlink="http://www.w3.org/1999/xlink">
    <!-- Generator: Sketch 50.2 (55047) - http://www.bohemiancoding.com/sketch -->
    <title>events copy 18</title>
    <desc>Created with Sketch.</desc>
    <defs></defs>
    <g id="events-copy-18" stroke="none" stroke-width="1" fill="none" fill-rule="evenodd">
        <rect id="Rectangle-17" fill="#AF0556" x="0" y="0" width="1440" height="810"></rect>
        <g id="symbol-white" transform="translate(620.000000, 222.000000)" fill="#FFFFFF" fill-rule="nonzero">
            <path d="M50.5892991,81.9264128 C48.739599,74.1570162 47.4441529,66.9451534 46.332365,59.9103895 C46.5193029,66.9451534 46.702961,74.1570162 46.702961,82.2970086 L46.702961,167.212676 L36.1590143,167.212676 L36.1590143,37.7139878 L51.8847452,37.7139878 L70.5686845,117.444591 C72.4183845,125.400926 73.7138305,132.616068 74.8256184,139.647552 C74.635401,132.616068 74.2680847,125.400926 74.2680847,117.260933 L74.2680847,37.7139878 L84.9989693,37.7139878 L84.9989693,167.212676 L71.3065967,167.212676 L50.5892991,81.9264128 Z" id="Fill-32"></path>
            <path d="M48.5523333,304.193467 C48.5523333,314.183159 49.1065874,317.331584 58.1747095,317.331584 L62.9793384,317.331584 C72.0474607,317.331584 72.6017148,314.183159 72.6017148,304.193467 L72.6017148,275.703493 L84.2574495,275.703493 L84.2574495,306.597421 C84.2574495,323.621878 80.1874531,328.613445 64.2780641,328.613445 L56.3217298,328.613445 C40.4156203,328.613445 36.1586862,323.621878 36.1586862,306.597421 L36.1586862,219.2778 C36.1586862,202.259902 40.4156203,197.265055 56.3217298,197.265055 L64.2780641,197.265055 C80.1874531,197.265055 84.2574495,202.259902 84.2574495,219.2778 L84.2574495,244.625907 L72.6017148,244.625907 L72.6017148,221.688314 C72.6017148,211.695341 72.0474607,208.550195 62.9793384,208.550195 L58.1747095,208.550195 C49.1065874,208.550195 48.5523333,211.695341 48.5523333,221.688314 L48.5523333,304.193467 Z" id="Fill-33"></path>
            <path d="M127.448604,304.193467 C127.448604,314.183159 128.002858,317.331584 137.067701,317.331584 L141.875609,317.331584 C150.940452,317.331584 151.497985,314.183159 151.497985,304.193467 L151.497985,275.703493 L163.15372,275.703493 L163.15372,306.597421 C163.15372,323.621878 159.083724,328.613445 143.174335,328.613445 L135.218,328.613445 C119.308611,328.613445 115.054957,323.621878 115.054957,306.597421 L115.054957,219.2778 C115.054957,202.259902 119.308611,197.265055 135.218,197.265055 L143.174335,197.265055 C159.083724,197.265055 163.15372,202.259902 163.15372,219.2778 L163.15372,244.625907 L151.497985,244.625907 L151.497985,221.688314 C151.497985,211.695341 150.940452,208.550195 141.875609,208.550195 L137.067701,208.550195 C128.002858,208.550195 127.448604,211.695341 127.448604,221.688314 L127.448604,304.193467 Z" id="Fill-34"></path>
            <polygon id="Fill-35" points="115.053973 167.212348 115.053973 37.7136597 127.263962 37.7136597 127.263962 93.7654776 151.497002 93.7654776 151.497002 37.7136597 163.71027 37.7136597 163.71027 167.212348 151.497002 167.212348 151.497002 104.866958 127.263962 104.866958 127.263962 167.212348"></polygon>
            <path d="M0,364.773114 L0,1.55300569 L199.866005,1.55300569 L199.866005,364.773114 L0,364.773114 Z M12.2067091,352.563126 L187.656016,352.563126 L187.656016,13.7597148 L12.2067091,13.7597148 L12.2067091,352.563126 Z" id="Fill-36"></path>
        </g>
    </g>
</svg>